<svg viewBox="0 0 24 24" fill="none"
     xmlns="http://www.w3.org/2000/svg">
  <path d="M12.3361 4.84903C13.7175 4.84903 14.8373 3.76354 14.8373 2.42452C14.8373 1.08549 13.7175 0 12.3361 0C10.9548 0 9.83496 1.08549 9.83496 2.42452C9.83496 3.76354 10.9548 4.84903 12.3361 4.84903Z"
        fill="#6970FE"/>
  <path opacity="0.92"
        d="M9.218 2.64238C9.86437 3.70481 9.47093 5.09414 8.37491 5.69345C7.27889 6.32002 5.84563 5.93863 5.22737 4.8762C4.581 3.81377 4.97444 2.42444 6.07046 1.82512C7.16648 1.19856 8.57163 1.57995 9.218 2.64238Z"
        fill="#6970FE"/>
  <path opacity="0.84"
        d="M4.55249 5.55743C5.5923 6.15675 5.95764 7.43711 5.36748 8.4723C4.74921 9.48024 3.42837 9.83439 2.36045 9.26231C1.32064 8.66299 0.955303 7.38263 1.54547 6.34744C2.16373 5.31225 3.51268 4.95811 4.55249 5.55743Z"
        fill="#6970FE"/>
  <path opacity="0.76"
        d="M4.11852 12.8337C4.38326 11.7503 3.69184 10.664 2.57419 10.4073C1.45654 10.1507 0.33589 10.8209 0.0711506 11.9043C-0.193589 12.9877 0.497831 14.074 1.61548 14.3307C2.73313 14.5873 3.85378 13.9171 4.11852 12.8337Z"
        fill="#6970FE"/>
  <path opacity="0.68"
        d="M5.35812 17.8271C5.64191 16.8105 5.02177 15.7634 3.97301 15.4883C2.92425 15.2132 1.84401 15.8143 1.56022 16.8309C1.27644 17.8476 1.89658 18.8947 2.94534 19.1698C3.9941 19.4449 5.07434 18.8437 5.35812 17.8271Z"
        fill="#6970FE"/>
  <path opacity="0.6"
        d="M5.59228 20.0501C6.09814 19.1784 7.25036 18.8787 8.14966 19.3963C9.04896 19.8866 9.35809 21.0036 8.82413 21.8753C8.31828 22.747 7.16605 23.0467 6.26676 22.5291C5.39556 22.0387 5.08643 20.9218 5.59228 20.0501Z"
        fill="#6970FE"/>
  <path opacity="0.52"
        d="M10.5659 22.2837C10.5659 21.3303 11.3528 20.5675 12.3364 20.5675C13.32 20.5675 14.1069 21.3303 14.1069 22.2837C14.1069 23.2372 13.32 24 12.3364 24C11.3528 24 10.5659 23.2372 10.5659 22.2837Z"
        fill="#6970FE"/>
  <path opacity="0.44"
        d="M16.0469 21.766C15.5972 21.0032 15.8502 20.0225 16.6371 19.5866C17.4239 19.1507 18.4357 19.3959 18.8853 20.1587C19.335 20.9215 19.082 21.9022 18.2951 22.338C17.5083 22.7739 16.4965 22.5287 16.0469 21.766Z"
        fill="#6970FE"/>
  <path opacity="0.36"
        d="M20.4297 18.6061C19.699 18.1974 19.4461 17.2712 19.8676 16.5629C20.2892 15.8546 21.2447 15.6095 21.9754 16.0181C22.706 16.4267 22.959 17.3529 22.5374 18.0612C22.1159 18.7695 21.1885 19.0147 20.4297 18.6061Z"
        fill="#6970FE"/>
  <path opacity="0.28"
        d="M22.5949 13.7571C23.3864 13.7571 24.0281 13.1351 24.0281 12.3678C24.0281 11.6005 23.3864 10.9785 22.5949 10.9785C21.8033 10.9785 21.1616 11.6005 21.1616 12.3678C21.1616 13.1351 21.8033 13.7571 22.5949 13.7571Z"
        fill="#6970FE"/>
  <path opacity="0.2"
        d="M21.8642 8.49947C21.2459 8.85361 20.4309 8.63567 20.0656 8.03635C19.7003 7.43704 19.9251 6.64702 20.5434 6.29288C21.1616 5.93874 21.9766 6.15667 22.342 6.75599C22.7073 7.35531 22.5106 8.14532 21.8642 8.49947Z"
        fill="#6970FE"/>
  <path opacity="0.12"
        d="M17.7679 4.89088C18.4119 4.72131 18.7922 4.07776 18.6173 3.45345C18.4423 2.82915 17.7784 2.46052 17.1344 2.63008C16.4904 2.79964 16.1101 3.4432 16.285 4.0675C16.4599 4.6918 17.1238 5.06044 17.7679 4.89088Z"
        fill="#6970FE"/>
</svg>
