<svg width="24" height="24" viewBox="0 0 24 24" fill="none" xmlns="http://www.w3.org/2000/svg">
<path fill-rule="evenodd" clip-rule="evenodd" d="M12.0001 17.1001C9.27428 17.1001 6.40966 15.4954 4.07168 12.0001C6.40966 8.50482 9.27428 6.9001 12.0001 6.9001C14.7259 6.9001 17.5905 8.50482 19.9285 12.0001C17.5905 15.4954 14.7259 17.1001 12.0001 17.1001ZM21.7633 11.5231C19.1549 7.34965 15.6532 5.1001 12.0001 5.1001C8.347 5.1001 4.84531 7.34965 2.2369 11.5231C2.0545 11.8149 2.0545 12.1853 2.2369 12.4771C4.84531 16.6505 8.347 18.9001 12.0001 18.9001C15.6532 18.9001 19.1549 16.6506 21.7633 12.4771C21.9457 12.1853 21.9457 11.8149 21.7633 11.5231ZM12.0001 16.0001C14.2092 16.0001 16.0001 14.2092 16.0001 12.0001C16.0001 9.79096 14.2092 8.0001 12.0001 8.0001C9.79093 8.0001 8.00007 9.79096 8.00007 12.0001C8.00007 14.2092 9.79093 16.0001 12.0001 16.0001Z" fill="#292938"/>
</svg>
