<svg width="48" height="48" viewBox="0 0 48 48" fill="none" xmlns="http://www.w3.org/2000/svg">
    <path d="M24 47.9844C27.2656 47.9844 30.3359 47.3594 33.2109 46.1094C36.1016 44.8594 38.6484 43.1328 40.8516 40.9297C43.0547 38.7266 44.7812 36.1875 46.0312 33.3125C47.2812 30.4219 47.9062 27.3438 47.9062 24.0781C47.9062 20.8125 47.2812 17.7422 46.0312 14.8672C44.7812 11.9766 43.0547 9.42969 40.8516 7.22656C38.6484 5.02344 36.1016 3.29687 33.2109 2.04688C30.3203 0.796875 27.2422 0.171875 23.9766 0.171875C20.7109 0.171875 17.6328 0.796875 14.7422 2.04688C11.8672 3.29687 9.32812 5.02344 7.125 7.22656C4.9375 9.42969 3.21875 11.9766 1.96875 14.8672C0.71875 17.7422 0.09375 20.8125 0.09375 24.0781C0.09375 27.3438 0.71875 30.4219 1.96875 33.3125C3.21875 36.1875 4.94531 38.7266 7.14844 40.9297C9.35156 43.1328 11.8906 44.8594 14.7656 46.1094C17.6562 47.3594 20.7344 47.9844 24 47.9844ZM24 44C21.2344 44 18.6484 43.4844 16.2422 42.4531C13.8359 41.4219 11.7188 40 9.89062 38.1875C8.07812 36.3594 6.65625 34.2422 5.625 31.8359C4.60938 29.4297 4.10156 26.8438 4.10156 24.0781C4.10156 21.3125 4.60938 18.7266 5.625 16.3203C6.65625 13.9141 8.07812 11.7969 9.89062 9.96875C11.7031 8.14062 13.8125 6.71875 16.2188 5.70312C18.625 4.67188 21.2109 4.15625 23.9766 4.15625C26.7422 4.15625 29.3281 4.67188 31.7344 5.70312C34.1406 6.71875 36.2578 8.14062 38.0859 9.96875C39.9141 11.7969 41.3438 13.9141 42.375 16.3203C43.4062 18.7266 43.9219 21.3125 43.9219 24.0781C43.9219 26.8438 43.4062 29.4297 42.375 31.8359C41.3594 34.2422 39.9375 36.3594 38.1094 38.1875C36.2969 40 34.1797 41.4219 31.7578 42.4531C29.3516 43.4844 26.7656 44 24 44ZM15.9844 33.9922C16.5312 33.9922 16.9844 33.7969 17.3438 33.4062L23.9766 26.75L30.6562 33.4062C31.0312 33.7969 31.4766 33.9922 31.9922 33.9922C32.5078 33.9922 32.9453 33.8047 33.3047 33.4297C33.6797 33.0547 33.8672 32.6094 33.8672 32.0938C33.8672 31.5781 33.6797 31.1328 33.3047 30.7578L26.6484 24.1016L33.3281 17.3984C33.7031 17.0234 33.8906 16.5859 33.8906 16.0859C33.8906 15.5703 33.7031 15.1328 33.3281 14.7734C32.9688 14.3984 32.5312 14.2109 32.0156 14.2109C31.5312 14.2109 31.1016 14.4062 30.7266 14.7969L23.9766 21.4766L17.2969 14.8203C16.9531 14.4453 16.5156 14.2578 15.9844 14.2578C15.4688 14.2578 15.0234 14.4375 14.6484 14.7969C14.2891 15.1562 14.1094 15.5938 14.1094 16.1094C14.1094 16.625 14.2969 17.0625 14.6719 17.4219L21.3281 24.1016L14.6719 30.7812C14.2969 31.1406 14.1094 31.5781 14.1094 32.0938C14.1094 32.6094 14.2891 33.0547 14.6484 33.4297C15.0234 33.8047 15.4688 33.9922 15.9844 33.9922Z" fill="#FF2E2E" />
</svg>
    