<svg width="40" height="40" viewBox="0 0 40 40" fill="none" xmlns="http://www.w3.org/2000/svg">
<g filter="url(#filter0_d_1367_9685)">
<rect x="20" y="1.41421" width="20.6274" height="20.6274" transform="rotate(45 20 1.41421)" fill="#BD80F4" stroke="url(#paint0_linear_1367_9685)" stroke-width="2"/>
<path d="M25.8787 15.1574C25.8787 15.1165 25.8838 15.0756 25.8838 15.0347C25.8838 13.3946 24.4904 11.9792 22.7667 11.9792C21.5074 11.9792 20.4237 12.7814 19.9334 13.8033C19.4431 12.7814 18.3593 11.9792 17.1001 11.9792C15.3763 11.9792 13.9829 13.3997 13.9829 15.0347C13.9829 15.0756 13.9829 15.1165 13.9881 15.1574C13.9881 15.1574 13.8126 17.1041 16.0008 19.2296C16.9968 20.2158 18.1064 21.1559 19.9385 22.6274C21.7706 21.1559 22.8802 20.2158 23.8763 19.2296C26.0541 17.1041 25.8787 15.1574 25.8787 15.1574Z" fill="#7B47E1"/>
</g>
<defs>
<filter id="filter0_d_1367_9685" x="0" y="0" width="40" height="40" filterUnits="userSpaceOnUse" color-interpolation-filters="sRGB">
<feFlood flood-opacity="0" result="BackgroundImageFix"/>
<feColorMatrix in="SourceAlpha" type="matrix" values="0 0 0 0 0 0 0 0 0 0 0 0 0 0 0 0 0 0 127 0" result="hardAlpha"/>
<feOffset dy="4"/>
<feGaussianBlur stdDeviation="2"/>
<feComposite in2="hardAlpha" operator="out"/>
<feColorMatrix type="matrix" values="0 0 0 0 0 0 0 0 0 0 0 0 0 0 0 0 0 0 0.25 0"/>
<feBlend mode="normal" in2="BackgroundImageFix" result="effect1_dropShadow_1367_9685"/>
<feBlend mode="normal" in="SourceGraphic" in2="effect1_dropShadow_1367_9685" result="shape"/>
</filter>
<linearGradient id="paint0_linear_1367_9685" x1="31.3137" y1="0" x2="31.3137" y2="22.6274" gradientUnits="userSpaceOnUse">
<stop stop-color="#E6CAF8"/>
<stop offset="0.192708" stop-color="#E9CDF6"/>
<stop offset="0.375" stop-color="white"/>
<stop offset="0.505208" stop-color="#DCBEF8"/>
<stop offset="1" stop-color="#D0AEF0"/>
</linearGradient>
</defs>
</svg>
