<svg width="20" height="20" viewBox="0 0 20 20" fill="none" xmlns="http://www.w3.org/2000/svg">
<path d="M18.3202 0.679932H12.8002C12.2402 0.679932 11.8002 1.11993 11.8002 1.67993C11.8002 2.23993 12.2402 2.67993 12.8002 2.67993H15.8802L12.2002 6.35993C9.36016 4.23993 5.32016 4.43993 2.76016 6.99993C-0.0398437 9.79993 -0.0398437 14.3999 2.76016 17.1999C5.56016 19.9999 10.1602 19.9999 12.9602 17.1999C15.5202 14.6399 15.7602 10.5599 13.6002 7.75993L17.2802 4.07993V7.19993C17.2802 7.75993 17.7202 8.19993 18.2802 8.19993C18.8402 8.19993 19.2802 7.75993 19.2802 7.19993V1.67993C19.3202 1.11993 18.8802 0.679932 18.3202 0.679932ZM11.6002 15.7999C9.56016 17.8399 6.24016 17.8399 4.20016 15.7999C2.16016 13.7599 2.16016 10.4399 4.20016 8.39993C6.24016 6.35993 9.56016 6.35993 11.6002 8.39993C13.6402 10.4399 13.6402 13.7599 11.6002 15.7999Z" fill="#9595A9"/>
</svg>
