<svg width="14" height="17" viewBox="0 0 14 17" fill="none" xmlns="http://www.w3.org/2000/svg">
    <path d="M6.99268 11.7368C7.17578 11.7368 7.33691 11.6782 7.50537 11.5098L9.96631 9.13672C10.0908 9.01221 10.1567 8.88037 10.1567 8.70459C10.1567 8.36768 9.88574 8.11865 9.55615 8.11865C9.3877 8.11865 9.21924 8.19189 9.10205 8.32373L8.06934 9.41504L7.60059 9.94971L7.67383 8.86572V1.27051C7.67383 0.911621 7.36621 0.604004 6.99268 0.604004C6.62646 0.604004 6.31885 0.911621 6.31885 1.27051V8.86572L6.39209 9.95703L5.91602 9.41504L4.89062 8.32373C4.77344 8.19189 4.59766 8.11865 4.4292 8.11865C4.09961 8.11865 3.82861 8.36768 3.82861 8.70459C3.82861 8.88037 3.90186 9.01221 4.02637 9.13672L6.4873 11.5098C6.65576 11.6782 6.81689 11.7368 6.99268 11.7368ZM2.78125 16.4829H11.2114C12.7935 16.4829 13.6138 15.6699 13.6138 14.1099V6.89551C13.6138 5.33545 12.7935 4.52246 11.2114 4.52246H9.22656V5.95801H11.1235C11.7974 5.95801 12.1782 6.30957 12.1782 7.02002V13.9854C12.1782 14.6958 11.7974 15.0474 11.1235 15.0474H2.86914C2.18799 15.0474 1.81445 14.6958 1.81445 13.9854V7.02002C1.81445 6.30957 2.18799 5.95801 2.86914 5.95801H4.78076V4.52246H2.78125C1.19922 4.52246 0.378906 5.33545 0.378906 6.89551V14.1099C0.378906 15.6699 1.19922 16.4829 2.78125 16.4829Z" fill="#2BB3FF" />
</svg>
    