<svg width="17" height="19" viewBox="0 0 17 19" fill="none" xmlns="http://www.w3.org/2000/svg">
<path d="M16.3828 8.17188C16.7188 8.17188 17 7.89062 17 7.54688V6.27344C17 3.92188 15.375 2.30469 13.0547 2.30469H12.7422V1.3125C12.7422 0.6875 12.2344 0.523438 11.7578 0.882812L9.64844 2.46094C9.32031 2.71094 9.3125 3.04688 9.64844 3.29688L11.7578 4.86719C12.2266 5.21875 12.7422 5.05469 12.7422 4.45312V3.46875H13.0625C14.6875 3.46875 15.7578 4.64062 15.7578 6.27344V7.54688C15.7578 7.89062 16.0391 8.17188 16.3828 8.17188ZM3.14062 18.7344H10.8594C12.3359 18.7344 13.125 17.9766 13.125 16.4688V8.76562C13.125 7.26562 12.3359 6.5 10.8594 6.5H3.14062C1.66406 6.5 0.875 7.26562 0.875 8.76562V16.4688C0.875 17.9766 1.66406 18.7344 3.14062 18.7344ZM3.28125 17.0625C2.78125 17.0625 2.55469 16.8594 2.55469 16.3359V8.90625C2.55469 8.38281 2.78125 8.17969 3.28125 8.17969H10.7188C11.2188 8.17969 11.4453 8.38281 11.4453 8.90625V16.3359C11.4453 16.8594 11.2188 17.0625 10.7188 17.0625H3.28125Z" fill="#7265FD"/>
</svg>
