<svg viewBox="0 0 24 24" fill="none" xmlns="http://www.w3.org/2000/svg">
<path fill-rule="evenodd" clip-rule="evenodd" d="M11.0287 15.0008C11.5806 14.9801 12.0449 15.4105 12.0657 15.9625C12.1127 17.2067 12.1787 18.1147 12.2435 18.7658C12.3073 19.407 12.6945 19.7928 13.2341 19.8588C13.8703 19.9366 14.7678 20.0002 15.9995 20.0002C17.2312 20.0002 18.1288 19.9366 18.765 19.8588C19.3043 19.7928 19.6915 19.4069 19.7555 18.7655C19.8759 17.557 19.9995 15.469 19.9995 12.0002C19.9995 8.53138 19.8759 6.4434 19.7555 5.23487C19.6915 4.59353 19.3043 4.20756 18.765 4.14163C18.1288 4.06385 17.2312 4.00019 15.9995 4.00019C14.7678 4.00019 13.8703 4.06385 13.2341 4.14162C12.6945 4.20759 12.3073 4.59337 12.2435 5.23457C12.1787 5.88564 12.1127 6.79373 12.0657 8.03793C12.0449 8.58981 11.5806 9.02032 11.0287 8.99949C10.4768 8.97865 10.0463 8.51436 10.0671 7.96247C10.1153 6.68544 10.1837 5.73563 10.2534 5.03631C10.3998 3.56614 11.4248 2.3479 12.9913 2.1564C13.7206 2.06727 14.7003 2.0002 15.9995 2.0002C17.2987 2.0002 18.2784 2.06727 19.0077 2.15641C20.5744 2.34793 21.5992 3.56675 21.7456 5.03662C21.8746 6.33088 21.9995 8.48867 21.9995 12.0002C21.9995 15.5117 21.8746 17.6695 21.7456 18.9637C21.5992 20.4336 20.5744 21.6524 19.0077 21.844C18.2784 21.9331 17.2987 22.0002 15.9995 22.0002C14.7003 22.0002 13.7206 21.9331 12.9913 21.844C11.4248 21.6524 10.3998 20.4342 10.2534 18.9641C10.1837 18.2647 10.1153 17.3149 10.0671 16.0379C10.0463 15.486 10.4768 15.0217 11.0287 15.0008Z" fill="#1A1A1C"/>
<path fill-rule="evenodd" clip-rule="evenodd" d="M7.20711 14.7929C7.59764 15.1834 7.59764 15.8166 7.20711 16.2071C6.81658 16.5977 6.18343 16.5977 5.7929 16.2071L2.2929 12.7072C1.90237 12.3166 1.90237 11.6834 2.2929 11.2929L5.7929 7.7929C6.18343 7.40237 6.81658 7.40237 7.20711 7.7929C7.59764 8.18341 7.59764 8.81658 7.20711 9.20711L5.41422 11H15C15.5523 11 16 11.4477 16 12C16 12.5522 15.5523 13 15 13H5.41422L7.20711 14.7929Z" fill="#1A1A1C"/>
</svg>
