<svg width="14" height="15" viewBox="0 0 14 15" fill="none" xmlns="http://www.w3.org/2000/svg">
  <path d="M7 7.54688C8.90625 7.54688 10.4453 5.875 10.4453 3.80469C10.4453 1.78125 8.90625 0.148438 7 0.148438C5.10156 0.148438 3.53906 1.79688 3.54688 3.82031C3.55469 5.875 5.08594 7.54688 7 7.54688ZM7 6.0625C5.96094 6.0625 5.08594 5.10938 5.08594 3.8125C5.07812 2.5625 5.96094 1.63281 7 1.63281C8.04688 1.63281 8.91406 2.55469 8.91406 3.80469C8.91406 5.10156 8.04688 6.0625 7 6.0625ZM2.14844 14.8359H11.8359C13.2188 14.8359 13.8984 14.3828 13.8984 13.4297C13.8984 11.2188 11.1562 8.41406 6.99219 8.41406C2.83594 8.41406 0.09375 11.2188 0.09375 13.4297C0.09375 14.3828 0.765625 14.8359 2.14844 14.8359ZM1.97656 13.3594C1.8125 13.3594 1.75 13.2969 1.75 13.1641C1.75 12.0312 3.64062 9.89844 6.99219 9.89844C10.3438 9.89844 12.2422 12.0312 12.2422 13.1641C12.2422 13.2969 12.1797 13.3594 12.0078 13.3594H1.97656Z"
        fill="#7265FD"/>
</svg>
